<svg xmlns="http://www.w3.org/2000/svg" viewBox="0 0 256.2 64.23"><defs><style>.cls-1{fill:#383838;}</style></defs><title>Asset 1</title><g id="Layer_2" data-name="Layer 2"><g id="Layer_1-2" data-name="Layer 1"><path class="cls-1" d="M69.7,10.65a7.27,7.27,0,1,0,7.72,6.79A7.27,7.27,0,0,0,69.7,10.65ZM41.26,23.21C36.37,25.9,33.81,28.29,28.93,31c-6.67,3.67-8.05,2.85-11.3-4-3.78-8-7-16.39-10.25-24.18C3.83-2-.36-.3,0,5.67L7.66,43.4c3.58,17.71,7.82,22.49,22.75,12.74l25-16.35C66.95,29.47,57.81,12.07,41.26,23.21Zm62.2,7.3H94.52V5.94H88.33V30q0,3.53,1.41,5t4.83,1.47h8.9Zm10.42,5.27a15.78,15.78,0,0,0,12.25,0,15.83,15.83,0,0,0,8.4-8.29,14.63,14.63,0,0,0,1.26-6,16.25,16.25,0,0,0-1.21-6.28,15.67,15.67,0,0,0-3.34-5.09,16.11,16.11,0,0,0-5-3.41,15,15,0,0,0-6.14-1.26,15.68,15.68,0,0,0-6.21,1.24A16,16,0,0,0,108.87,10a15.73,15.73,0,0,0-3.39,5,15.39,15.39,0,0,0-1.24,6.16,15.38,15.38,0,0,0,1.24,6.16,15.93,15.93,0,0,0,8.4,8.41Zm-2.69-18.39a9.67,9.67,0,0,1,2.07-3.11,9.8,9.8,0,0,1,3.06-2.07,9.35,9.35,0,0,1,3.77-.76,8.86,8.86,0,0,1,3.7.78,9.56,9.56,0,0,1,3,2.14,10.45,10.45,0,0,1,2,3.15,9.83,9.83,0,0,1,.76,3.87,9.16,9.16,0,0,1-.76,3.68,9.81,9.81,0,0,1-2.07,3.06,10.13,10.13,0,0,1-3.06,2.09A8.9,8.9,0,0,1,120,31a9.36,9.36,0,0,1-6.8-2.85,10.16,10.16,0,0,1-2-3.13,10,10,0,0,1,0-7.64Zm55.29,13.69a16.52,16.52,0,0,0,2.25-3.82,9.61,9.61,0,0,0,.87-3.64,3.7,3.7,0,0,0-1.05-2.83,4.26,4.26,0,0,0-3-1H154.19v5.87h8.44q-2.94,5.41-8.53,5.41a9.32,9.32,0,0,1-6.79-2.85,10.14,10.14,0,0,1-2-3.13,9.85,9.85,0,0,1-.76-3.87,9.56,9.56,0,0,1,.76-3.8,10,10,0,0,1,5.09-5.23,8.82,8.82,0,0,1,3.69-.78,9.3,9.3,0,0,1,4.61,1.19,9.44,9.44,0,0,1,3.46,3.35l5.23-3.39a16.62,16.62,0,0,0-5.78-5.31,15.33,15.33,0,0,0-7.43-1.84A15.56,15.56,0,0,0,148,6.63a15.78,15.78,0,0,0-5,3.39,16,16,0,0,0-3.37,5,15.45,15.45,0,0,0-1.23,6.16,15.61,15.61,0,0,0,1.23,6.19,15.72,15.72,0,0,0,8.4,8.43,15.95,15.95,0,0,0,13-.31A16,16,0,0,0,166.48,31.07Zm7.11,5.44h6.19V5.94h-6.19Zm27.24-15.16a9.32,9.32,0,0,0-1-1,5.41,5.41,0,0,0-1.24-.78,14.39,14.39,0,0,0-1.77-.66q-1-.32-2.6-.73a8.64,8.64,0,0,1-3.2-1.3,2.54,2.54,0,0,1-.85-2.08,3.11,3.11,0,0,1,1.21-2.54,4.85,4.85,0,0,1,3.14-1,11.15,11.15,0,0,1,2.8.34,17.17,17.17,0,0,1,3.12,1.21V6.32a24.44,24.44,0,0,0-3.1-.72,19,19,0,0,0-2.91-.21,11.13,11.13,0,0,0-6,1.37,9.38,9.38,0,0,0-3.28,3.52A9.74,9.74,0,0,0,184,15a9,9,0,0,0,1.24,4.67,7.37,7.37,0,0,0,2.45,2.59,13.89,13.89,0,0,0,4.15,1.62l2.06.55a5.87,5.87,0,0,1,1.05.37,2.85,2.85,0,0,1,1.74,2.7,3.15,3.15,0,0,1-1.17,2.56,4.8,4.8,0,0,1-3.14,1,14,14,0,0,1-3.49-.46,32.67,32.67,0,0,1-4.4-1.56v6.54a39,39,0,0,0,4.27,1.13,18.67,18.67,0,0,0,3.53.35,13.42,13.42,0,0,0,4.38-.68,9.54,9.54,0,0,0,3.39-2,9,9,0,0,0,2.18-3.06,9.69,9.69,0,0,0,.78-3.93A9,9,0,0,0,200.83,21.35Zm3-9.4h5.73V36.51h6.19V11.94h5.78v-6h-17.7Zm27.29-6H225V36.51h6.19Zm22.57,24.7h-1.79a18.93,18.93,0,0,1-2-.09,10.38,10.38,0,0,1-1.63-.3,8.16,8.16,0,0,1-1.42-.53,8.63,8.63,0,0,1-1.35-.83,9.27,9.27,0,0,1-3-3.33,9.05,9.05,0,0,1-1.05-4.3,9.33,9.33,0,0,1,1.05-4.34,9.48,9.48,0,0,1,2.89-3.38,8.58,8.58,0,0,1,2.73-1.35,13.47,13.47,0,0,1,3.55-.39h2V5.94h-2.11q-1.47,0-2.64.11a15.87,15.87,0,0,0-2.2.37,14.65,14.65,0,0,0-2,.64,12.84,12.84,0,0,0-1.93,1,14.91,14.91,0,0,0-5.53,5.54,15.62,15.62,0,0,0-1.47,11.66,15,15,0,0,0,1.51,3.64A16.2,16.2,0,0,0,239.75,32a13.94,13.94,0,0,0,3.19,2.45,15.5,15.5,0,0,0,1.95,1,11.8,11.8,0,0,0,2,.62,15.75,15.75,0,0,0,2.25.32q1.21.09,2.82.09h1.79ZM89,63.84h3V49.18H89Zm13.35-5.63-3.19-7a9.33,9.33,0,0,0-.55-1.07A3.46,3.46,0,0,0,98,49.5a1.61,1.61,0,0,0-.57-.36,2.09,2.09,0,0,0-.7-.11,2,2,0,0,0-1.13.32,1.94,1.94,0,0,0-.74.87,2.13,2.13,0,0,0-.13.32,1.9,1.9,0,0,0-.07.35c0,.14,0,.32,0,.54s0,.51,0,.88V63.84h3V54.43L101,61.88l.24.55c.06.13.11.24.15.32l.12.2.14.21a1.88,1.88,0,0,0,1.63.86,2,2,0,0,0,1.07-.31,1.55,1.55,0,0,0,.67-.79,2.8,2.8,0,0,0,.19-.77,10.75,10.75,0,0,0,.06-1.23V49.18h-3Zm7.26-8.91a1.91,1.91,0,0,0-.84.47,2.1,2.1,0,0,0-.6,1,5.28,5.28,0,0,0-.19,1.53V63.84h3V57.6h4V54.78h-4V52.06h4.33V49.18h-4.31A5.86,5.86,0,0,0,109.58,49.3Zm19.62,1.88a7.73,7.73,0,0,0-2.38-1.64,7.19,7.19,0,0,0-2.94-.6,7.51,7.51,0,0,0-3,.59,7.66,7.66,0,0,0-2.43,1.61,7.55,7.55,0,0,0-1.63,2.4,7.67,7.67,0,0,0,0,5.91,7.64,7.64,0,0,0,4,4,7.56,7.56,0,0,0,5.88,0,7.59,7.59,0,0,0,4-4,7,7,0,0,0,.6-2.88,7.79,7.79,0,0,0-.58-3A7.51,7.51,0,0,0,129.19,51.18ZM128,58.35a4.71,4.71,0,0,1-1,1.47,4.86,4.86,0,0,1-1.47,1,4.26,4.26,0,0,1-1.76.38,4.49,4.49,0,0,1-3.26-1.37,4.85,4.85,0,0,1-1-1.5A4.68,4.68,0,0,1,122,52.18a4.48,4.48,0,0,1,1.81-.36,4.23,4.23,0,0,1,1.77.38,4.58,4.58,0,0,1,1.45,1,5,5,0,0,1,1,1.51,4.71,4.71,0,0,1,.36,1.85A4.39,4.39,0,0,1,128,58.35Zm3.69-6.3h2.75V63.84h3V52.06h2.77V49.18h-8.49Zm11.69-2.76a1.91,1.91,0,0,0-.85.47,2.1,2.1,0,0,0-.6,1,5.28,5.28,0,0,0-.19,1.53v8.46a5.68,5.68,0,0,0,.13,1.34,2.25,2.25,0,0,0,.44.9,1.94,1.94,0,0,0,.91.67,4.9,4.9,0,0,0,1.54.19h4.29V61h-4.33V57.6h4V54.78h-4V52.06h4.33V49.18H144.8A6,6,0,0,0,143.42,49.3Zm13.84-.07a7.56,7.56,0,0,0-1.06.18,6.91,6.91,0,0,0-1,.31,6.08,6.08,0,0,0-.92.47,7.16,7.16,0,0,0-2.65,2.66,7.4,7.4,0,0,0,0,7.34,7.76,7.76,0,0,0,1.14,1.5,6.65,6.65,0,0,0,1.53,1.18,7.5,7.5,0,0,0,.93.47,5.57,5.57,0,0,0,.95.3,7.5,7.5,0,0,0,1.08.15q.58,0,1.35,0h.86V61h-.86a9.13,9.13,0,0,1-.95,0,5,5,0,0,1-.78-.14,3.9,3.9,0,0,1-.68-.25,4.16,4.16,0,0,1-.65-.4,4.43,4.43,0,0,1-1.43-1.6,4.34,4.34,0,0,1-.51-2.06,4.47,4.47,0,0,1,.51-2.08,4.55,4.55,0,0,1,1.39-1.62,4.11,4.11,0,0,1,1.31-.65,6.47,6.47,0,0,1,1.7-.19h.95V49.18h-1Q157.82,49.18,157.26,49.23Zm12.07,5.62h-4.64V49.18h-3V63.84h3V57.66h4.64v6.18h3V49.18h-3Zm18.6-4.46a3.68,3.68,0,0,0-1.56-.93,8.56,8.56,0,0,0-2.4-.27,7.43,7.43,0,0,0-1.64.15,2.31,2.31,0,0,0-1.05.52,2,2,0,0,0-.56,1,5.73,5.73,0,0,0-.16,1.48V63.84h3V58l.88,0,.71-.05.59-.09.56-.14a4,4,0,0,0,1.18-.6,4.21,4.21,0,0,0,.94-1,4.64,4.64,0,0,0,.5-4.37A4.15,4.15,0,0,0,187.92,50.38ZM186,54.44a1.57,1.57,0,0,1-.66.56,2.07,2.07,0,0,1-.58.14,8.56,8.56,0,0,1-.87,0h-.35V52h.33q.64,0,.91,0a2,2,0,0,1,.51.11,1.45,1.45,0,0,1,.7.55,1.49,1.49,0,0,1,.28.88A1.45,1.45,0,0,1,186,54.44Zm9.73,5.22L193,49.18H189.7l3.59,12.48a5,5,0,0,0,.95,2,1.91,1.91,0,0,0,1.47.59,2.2,2.2,0,0,0,.93-.21,1.75,1.75,0,0,0,.71-.58,2.09,2.09,0,0,0,.33-.59q.13-.35.37-1.21l3.65-12.46h-3.19Zm6.73-7.6h2.75V63.84h3V52.06h2.77V49.18h-8.49Zm11,8.55a1.73,1.73,0,0,0-1.74,1.74,1.73,1.73,0,0,0,1.72,1.71,1.69,1.69,0,0,0,1.22-.51,1.63,1.63,0,0,0,.52-1.21,1.69,1.69,0,0,0-.5-1.23A1.64,1.64,0,0,0,213.46,60.61Zm12.61-11.43h-3V60.74a3.41,3.41,0,0,0,.68,2.4,3.13,3.13,0,0,0,2.31.7h4.27V61h-4.29Zm3.81,2.88h2.75V63.84h3V52.06h2.77V49.18h-8.49Zm18.23-1.43a7,7,0,0,0-2.18-1.11,9.78,9.78,0,0,0-2.75-.34,5.36,5.36,0,0,0-1.86.24,2,2,0,0,0-1,.9,2.35,2.35,0,0,0-.32.79,6.46,6.46,0,0,0-.08,1.16v8q0,.59,0,1A4.42,4.42,0,0,0,240,62a2.24,2.24,0,0,0,.18.52,1.89,1.89,0,0,0,.29.42,2.16,2.16,0,0,0,.95.68,4.58,4.58,0,0,0,1.5.2,15.36,15.36,0,0,0,1.93-.1,6.3,6.3,0,0,0,1.4-.34,7.15,7.15,0,0,0,2-1.1,7.5,7.5,0,0,0,1.52-1.6,7.4,7.4,0,0,0,.54-7.5A7.18,7.18,0,0,0,248.1,50.62Zm-.42,7.76a4.73,4.73,0,0,1-1.16,1.54,4,4,0,0,1-1.4.8,6.22,6.22,0,0,1-1.82.23h-.18l-.22,0V52.08l.22,0h.16a6,6,0,0,1,1.84.25,4,4,0,0,1,1.42.82,4.32,4.32,0,0,1,1.15,1.53,4.39,4.39,0,0,1,.42,1.86A4.29,4.29,0,0,1,247.68,58.39Zm8,2.73a1.64,1.64,0,0,0-1.22-.51,1.73,1.73,0,0,0-1.74,1.74,1.73,1.73,0,0,0,1.72,1.71,1.69,1.69,0,0,0,1.22-.51,1.63,1.63,0,0,0,.52-1.21A1.69,1.69,0,0,0,255.71,61.11Z"/></g></g></svg>